<svg xmlns="http://www.w3.org/2000/svg" xmlns:xlink="http://www.w3.org/1999/xlink" width="587" zoomAndPan="magnify" viewBox="0 0 440.25 208.499994" height="278" preserveAspectRatio="xMidYMid meet" version="1.0"><defs><g/></defs><g fill="#d32f23" fill-opacity="0.4196"><g transform="translate(78.441774, 124.16336)"><g><path d="M 10.21875 0.390625 C 7.40625 0.390625 5.179688 -0.382812 3.546875 -1.9375 C 1.921875 -3.488281 1.109375 -5.601562 1.109375 -8.28125 C 1.109375 -8.601562 1.140625 -9.148438 1.203125 -9.921875 L 2.953125 -24.0625 C 3.335938 -27.195312 4.578125 -29.679688 6.671875 -31.515625 C 8.773438 -33.359375 11.378906 -34.28125 14.484375 -34.28125 C 17.285156 -34.28125 19.507812 -33.515625 21.15625 -31.984375 C 22.800781 -30.453125 23.625 -28.34375 23.625 -25.65625 C 23.625 -25.375 23.59375 -24.84375 23.53125 -24.0625 L 23.484375 -23.828125 C 23.453125 -23.597656 23.363281 -23.410156 23.21875 -23.265625 C 23.070312 -23.117188 22.898438 -23.046875 22.703125 -23.046875 L 15.25 -22.8125 C 14.769531 -22.8125 14.5625 -23.035156 14.625 -23.484375 L 14.765625 -24.6875 C 14.828125 -25.238281 14.742188 -25.675781 14.515625 -26 C 14.296875 -26.320312 13.976562 -26.484375 13.5625 -26.484375 C 13.101562 -26.484375 12.71875 -26.320312 12.40625 -26 C 12.101562 -25.675781 11.921875 -25.238281 11.859375 -24.6875 L 9.96875 -9.15625 C 9.90625 -8.632812 9.976562 -8.210938 10.1875 -7.890625 C 10.394531 -7.566406 10.726562 -7.40625 11.1875 -7.40625 C 11.632812 -7.40625 12.007812 -7.554688 12.3125 -7.859375 C 12.625 -8.171875 12.8125 -8.601562 12.875 -9.15625 L 13.03125 -10.453125 C 13.0625 -10.679688 13.148438 -10.851562 13.296875 -10.96875 C 13.441406 -11.082031 13.609375 -11.140625 13.796875 -11.140625 L 21.203125 -10.890625 C 21.429688 -10.890625 21.601562 -10.816406 21.71875 -10.671875 C 21.832031 -10.523438 21.875 -10.34375 21.84375 -10.125 L 21.796875 -9.921875 C 21.398438 -6.796875 20.144531 -4.296875 18.03125 -2.421875 C 15.914062 -0.546875 13.3125 0.390625 10.21875 0.390625 Z M 10.21875 0.390625 "/></g></g></g><g fill="#d32f23" fill-opacity="0.4196"><g transform="translate(100.807799, 124.16336)"><g><path d="M 0.96875 0 C 0.769531 0 0.613281 -0.0625 0.5 -0.1875 C 0.394531 -0.320312 0.359375 -0.5 0.390625 -0.71875 L 4.359375 -33.171875 C 4.390625 -33.398438 4.476562 -33.578125 4.625 -33.703125 C 4.769531 -33.828125 4.9375 -33.890625 5.125 -33.890625 L 12.59375 -33.890625 C 12.78125 -33.890625 12.929688 -33.828125 13.046875 -33.703125 C 13.160156 -33.578125 13.203125 -33.398438 13.171875 -33.171875 L 9.203125 -0.71875 C 9.171875 -0.5 9.082031 -0.320312 8.9375 -0.1875 C 8.789062 -0.0625 8.617188 0 8.421875 0 Z M 0.96875 0 "/></g></g></g><g fill="#d32f23" fill-opacity="0.4196"><g transform="translate(112.087637, 124.16336)"><g><path d="M 17.96875 -33.171875 C 18 -33.398438 18.085938 -33.578125 18.234375 -33.703125 C 18.378906 -33.828125 18.5625 -33.890625 18.78125 -33.890625 L 26.09375 -33.890625 C 26.320312 -33.890625 26.492188 -33.828125 26.609375 -33.703125 C 26.722656 -33.578125 26.765625 -33.398438 26.734375 -33.171875 L 22.703125 -0.71875 C 22.671875 -0.5 22.59375 -0.320312 22.46875 -0.1875 C 22.34375 -0.0625 22.164062 0 21.9375 0 L 13.5625 0 C 13.175781 0 12.945312 -0.207031 12.875 -0.625 L 11.046875 -15.5 C 11.046875 -15.59375 11.007812 -15.640625 10.9375 -15.640625 C 10.875 -15.640625 10.84375 -15.59375 10.84375 -15.5 L 9.109375 -0.71875 C 9.078125 -0.5 8.988281 -0.320312 8.84375 -0.1875 C 8.695312 -0.0625 8.523438 0 8.328125 0 L 0.96875 0 C 0.769531 0 0.613281 -0.0625 0.5 -0.1875 C 0.394531 -0.320312 0.359375 -0.5 0.390625 -0.71875 L 4.359375 -33.171875 C 4.390625 -33.398438 4.476562 -33.578125 4.625 -33.703125 C 4.769531 -33.828125 4.9375 -33.890625 5.125 -33.890625 L 13.40625 -33.890625 C 13.800781 -33.890625 14.03125 -33.679688 14.09375 -33.265625 L 15.984375 -18.296875 C 15.984375 -18.203125 16.015625 -18.171875 16.078125 -18.203125 C 16.140625 -18.234375 16.1875 -18.285156 16.21875 -18.359375 Z M 17.96875 -33.171875 "/></g></g></g><g fill="#d32f23" fill-opacity="0.4196"><g transform="translate(136.874234, 124.16336)"><g><path d="M 22.375 -26.828125 C 22.34375 -26.597656 22.253906 -26.414062 22.109375 -26.28125 C 21.960938 -26.15625 21.773438 -26.09375 21.546875 -26.09375 L 12.546875 -26.09375 C 12.378906 -26.09375 12.296875 -26.015625 12.296875 -25.859375 L 11.71875 -21.109375 C 11.65625 -20.953125 11.71875 -20.875 11.90625 -20.875 L 16.609375 -20.875 C 16.835938 -20.875 17.003906 -20.804688 17.109375 -20.671875 C 17.222656 -20.546875 17.265625 -20.367188 17.234375 -20.140625 L 16.46875 -13.796875 C 16.363281 -13.316406 16.085938 -13.078125 15.640625 -13.078125 L 10.9375 -13.078125 C 10.78125 -13.078125 10.703125 -12.992188 10.703125 -12.828125 L 10.125 -8.03125 C 10.050781 -7.875 10.113281 -7.796875 10.3125 -7.796875 L 19.328125 -7.796875 C 19.546875 -7.796875 19.710938 -7.726562 19.828125 -7.59375 C 19.941406 -7.46875 19.984375 -7.289062 19.953125 -7.0625 L 19.171875 -0.71875 C 19.140625 -0.5 19.050781 -0.320312 18.90625 -0.1875 C 18.757812 -0.0625 18.578125 0 18.359375 0 L 0.96875 0 C 0.769531 0 0.613281 -0.0625 0.5 -0.1875 C 0.394531 -0.320312 0.359375 -0.5 0.390625 -0.71875 L 4.359375 -33.171875 C 4.390625 -33.398438 4.476562 -33.578125 4.625 -33.703125 C 4.769531 -33.828125 4.9375 -33.890625 5.125 -33.890625 L 22.515625 -33.890625 C 22.742188 -33.890625 22.910156 -33.828125 23.015625 -33.703125 C 23.128906 -33.578125 23.171875 -33.398438 23.140625 -33.171875 Z M 22.375 -26.828125 "/></g></g></g><g fill="#d32f23" fill-opacity="0.4196"><g transform="translate(157.73951, 124.16336)"><g><path d="M 1.84375 -9.921875 C 1.613281 -9.921875 1.441406 -9.984375 1.328125 -10.109375 C 1.210938 -10.242188 1.171875 -10.425781 1.203125 -10.65625 L 1.984375 -16.953125 C 2.015625 -17.171875 2.101562 -17.34375 2.25 -17.46875 C 2.394531 -17.601562 2.566406 -17.671875 2.765625 -17.671875 L 15.78125 -17.671875 C 16.007812 -17.671875 16.179688 -17.601562 16.296875 -17.46875 C 16.410156 -17.34375 16.453125 -17.171875 16.421875 -16.953125 L 15.640625 -10.65625 C 15.609375 -10.425781 15.519531 -10.242188 15.375 -10.109375 C 15.226562 -9.984375 15.039062 -9.921875 14.8125 -9.921875 Z M 1.84375 -9.921875 "/></g></g></g><g fill="#d32f23" fill-opacity="0.4196"><g transform="translate(173.860479, 124.16336)"><g><path d="M 22.21875 -9.734375 C 21.863281 -6.597656 20.628906 -4.191406 18.515625 -2.515625 C 16.398438 -0.835938 13.859375 0 10.890625 0 L 0.96875 0 C 0.769531 0 0.613281 -0.0625 0.5 -0.1875 C 0.394531 -0.320312 0.359375 -0.5 0.390625 -0.71875 L 4.359375 -33.171875 C 4.390625 -33.398438 4.476562 -33.578125 4.625 -33.703125 C 4.769531 -33.828125 4.9375 -33.890625 5.125 -33.890625 L 13.65625 -33.890625 C 16.75 -33.890625 19.160156 -33.234375 20.890625 -31.921875 C 22.617188 -30.617188 23.484375 -28.644531 23.484375 -26 C 23.484375 -25.675781 23.453125 -25.128906 23.390625 -24.359375 C 23.003906 -21.359375 21.828125 -19.128906 19.859375 -17.671875 C 19.660156 -17.578125 19.609375 -17.484375 19.703125 -17.390625 C 21.453125 -15.898438 22.328125 -13.816406 22.328125 -11.140625 C 22.328125 -10.847656 22.289062 -10.378906 22.21875 -9.734375 Z M 12.546875 -26.09375 C 12.378906 -26.09375 12.296875 -26.015625 12.296875 -25.859375 L 11.671875 -20.921875 C 11.671875 -20.753906 11.734375 -20.671875 11.859375 -20.671875 L 12.15625 -20.671875 C 13.539062 -20.671875 14.363281 -21.578125 14.625 -23.390625 L 14.671875 -24.015625 C 14.671875 -25.398438 14.054688 -26.09375 12.828125 -26.09375 Z M 11.140625 -7.796875 C 11.847656 -7.796875 12.4375 -8.132812 12.90625 -8.8125 C 13.375 -9.488281 13.609375 -10.457031 13.609375 -11.71875 C 13.609375 -12.457031 13.460938 -13.050781 13.171875 -13.5 C 12.878906 -13.957031 12.472656 -14.1875 11.953125 -14.1875 L 11.09375 -14.1875 C 10.925781 -14.1875 10.84375 -14.109375 10.84375 -13.953125 L 10.125 -8.03125 C 10.050781 -7.875 10.113281 -7.796875 10.3125 -7.796875 Z M 11.140625 -7.796875 "/></g></g></g><g fill="#d32f23" fill-opacity="0.4196"><g transform="translate(196.565387, 124.16336)"><g><path d="M 10.359375 0.390625 C 7.484375 0.390625 5.222656 -0.390625 3.578125 -1.953125 C 1.929688 -3.523438 1.109375 -5.648438 1.109375 -8.328125 C 1.109375 -8.648438 1.140625 -9.195312 1.203125 -9.96875 L 2.953125 -23.921875 C 3.335938 -27.085938 4.585938 -29.601562 6.703125 -31.46875 C 8.816406 -33.34375 11.457031 -34.28125 14.625 -34.28125 C 17.46875 -34.28125 19.71875 -33.492188 21.375 -31.921875 C 23.039062 -30.359375 23.875 -28.238281 23.875 -25.5625 C 23.875 -25.238281 23.84375 -24.691406 23.78125 -23.921875 L 22.078125 -9.96875 C 21.691406 -6.8125 20.429688 -4.296875 18.296875 -2.421875 C 16.171875 -0.546875 13.523438 0.390625 10.359375 0.390625 Z M 11.328125 -7.40625 C 11.816406 -7.40625 12.226562 -7.597656 12.5625 -7.984375 C 12.90625 -8.378906 13.125 -8.914062 13.21875 -9.59375 L 15.015625 -24.3125 C 15.078125 -24.988281 14.992188 -25.519531 14.765625 -25.90625 C 14.546875 -26.289062 14.191406 -26.484375 13.703125 -26.484375 C 13.179688 -26.484375 12.75 -26.289062 12.40625 -25.90625 C 12.070312 -25.519531 11.875 -24.988281 11.8125 -24.3125 L 10.015625 -9.59375 C 9.984375 -9.457031 9.96875 -9.28125 9.96875 -9.0625 C 9.96875 -8.539062 10.085938 -8.132812 10.328125 -7.84375 C 10.578125 -7.550781 10.910156 -7.40625 11.328125 -7.40625 Z M 11.328125 -7.40625 "/></g></g></g><g fill="#d32f23" fill-opacity="0.4196"><g transform="translate(219.270294, 124.16336)"><g><path d="M 10.359375 0.390625 C 7.484375 0.390625 5.222656 -0.390625 3.578125 -1.953125 C 1.929688 -3.523438 1.109375 -5.648438 1.109375 -8.328125 C 1.109375 -8.648438 1.140625 -9.195312 1.203125 -9.96875 L 2.953125 -23.921875 C 3.335938 -27.085938 4.585938 -29.601562 6.703125 -31.46875 C 8.816406 -33.34375 11.457031 -34.28125 14.625 -34.28125 C 17.46875 -34.28125 19.71875 -33.492188 21.375 -31.921875 C 23.039062 -30.359375 23.875 -28.238281 23.875 -25.5625 C 23.875 -25.238281 23.84375 -24.691406 23.78125 -23.921875 L 22.078125 -9.96875 C 21.691406 -6.8125 20.429688 -4.296875 18.296875 -2.421875 C 16.171875 -0.546875 13.523438 0.390625 10.359375 0.390625 Z M 11.328125 -7.40625 C 11.816406 -7.40625 12.226562 -7.597656 12.5625 -7.984375 C 12.90625 -8.378906 13.125 -8.914062 13.21875 -9.59375 L 15.015625 -24.3125 C 15.078125 -24.988281 14.992188 -25.519531 14.765625 -25.90625 C 14.546875 -26.289062 14.191406 -26.484375 13.703125 -26.484375 C 13.179688 -26.484375 12.75 -26.289062 12.40625 -25.90625 C 12.070312 -25.519531 11.875 -24.988281 11.8125 -24.3125 L 10.015625 -9.59375 C 9.984375 -9.457031 9.96875 -9.28125 9.96875 -9.0625 C 9.96875 -8.539062 10.085938 -8.132812 10.328125 -7.84375 C 10.578125 -7.550781 10.910156 -7.40625 11.328125 -7.40625 Z M 11.328125 -7.40625 "/></g></g></g><g fill="#d32f23" fill-opacity="0.4196"><g transform="translate(241.975202, 124.16336)"><g><path d="M 0.96875 0 C 0.769531 0 0.613281 -0.0625 0.5 -0.1875 C 0.394531 -0.320312 0.359375 -0.5 0.390625 -0.71875 L 4.359375 -33.171875 C 4.390625 -33.398438 4.476562 -33.578125 4.625 -33.703125 C 4.769531 -33.828125 4.9375 -33.890625 5.125 -33.890625 L 12.59375 -33.890625 C 12.78125 -33.890625 12.929688 -33.828125 13.046875 -33.703125 C 13.160156 -33.578125 13.203125 -33.398438 13.171875 -33.171875 L 12.015625 -23.4375 C 11.972656 -23.3125 11.984375 -23.25 12.046875 -23.25 C 12.117188 -23.25 12.1875 -23.296875 12.25 -23.390625 L 17.484375 -33.3125 C 17.671875 -33.695312 17.976562 -33.890625 18.40625 -33.890625 L 26.140625 -33.890625 C 26.535156 -33.890625 26.734375 -33.742188 26.734375 -33.453125 C 26.734375 -33.328125 26.679688 -33.1875 26.578125 -33.03125 L 18.203125 -18.6875 C 18.171875 -18.5625 18.15625 -18.46875 18.15625 -18.40625 L 22.859375 -0.828125 L 22.859375 -0.625 C 22.859375 -0.207031 22.628906 0 22.171875 0 L 14.375 0 C 13.957031 0 13.703125 -0.191406 13.609375 -0.578125 L 11.140625 -10.5625 C 11.140625 -10.65625 11.101562 -10.707031 11.03125 -10.71875 C 10.96875 -10.738281 10.921875 -10.6875 10.890625 -10.5625 L 10.3125 -9.484375 L 10.265625 -9.203125 L 9.203125 -0.71875 C 9.171875 -0.5 9.082031 -0.320312 8.9375 -0.1875 C 8.789062 -0.0625 8.617188 0 8.421875 0 Z M 0.96875 0 "/></g></g></g><g fill="#d32f23" fill-opacity="0.4196"><g transform="translate(266.229278, 124.16336)"><g/></g></g><g fill="#75c7fb" fill-opacity="1"><g transform="translate(77.002339, 122.867283)"><g><path d="M 10.21875 0.390625 C 7.40625 0.390625 5.179688 -0.382812 3.546875 -1.9375 C 1.921875 -3.488281 1.109375 -5.601562 1.109375 -8.28125 C 1.109375 -8.601562 1.140625 -9.148438 1.203125 -9.921875 L 2.953125 -24.0625 C 3.335938 -27.195312 4.578125 -29.679688 6.671875 -31.515625 C 8.773438 -33.359375 11.378906 -34.28125 14.484375 -34.28125 C 17.285156 -34.28125 19.507812 -33.515625 21.15625 -31.984375 C 22.800781 -30.453125 23.625 -28.34375 23.625 -25.65625 C 23.625 -25.375 23.59375 -24.84375 23.53125 -24.0625 L 23.484375 -23.828125 C 23.453125 -23.597656 23.363281 -23.410156 23.21875 -23.265625 C 23.070312 -23.117188 22.898438 -23.046875 22.703125 -23.046875 L 15.25 -22.8125 C 14.769531 -22.8125 14.5625 -23.035156 14.625 -23.484375 L 14.765625 -24.6875 C 14.828125 -25.238281 14.742188 -25.675781 14.515625 -26 C 14.296875 -26.320312 13.976562 -26.484375 13.5625 -26.484375 C 13.101562 -26.484375 12.71875 -26.320312 12.40625 -26 C 12.101562 -25.675781 11.921875 -25.238281 11.859375 -24.6875 L 9.96875 -9.15625 C 9.90625 -8.632812 9.976562 -8.210938 10.1875 -7.890625 C 10.394531 -7.566406 10.726562 -7.40625 11.1875 -7.40625 C 11.632812 -7.40625 12.007812 -7.554688 12.3125 -7.859375 C 12.625 -8.171875 12.8125 -8.601562 12.875 -9.15625 L 13.03125 -10.453125 C 13.0625 -10.679688 13.148438 -10.851562 13.296875 -10.96875 C 13.441406 -11.082031 13.609375 -11.140625 13.796875 -11.140625 L 21.203125 -10.890625 C 21.429688 -10.890625 21.601562 -10.816406 21.71875 -10.671875 C 21.832031 -10.523438 21.875 -10.34375 21.84375 -10.125 L 21.796875 -9.921875 C 21.398438 -6.796875 20.144531 -4.296875 18.03125 -2.421875 C 15.914062 -0.546875 13.3125 0.390625 10.21875 0.390625 Z M 10.21875 0.390625 "/></g></g></g><g fill="#75c7fb" fill-opacity="1"><g transform="translate(99.368364, 122.867283)"><g><path d="M 0.96875 0 C 0.769531 0 0.613281 -0.0625 0.5 -0.1875 C 0.394531 -0.320312 0.359375 -0.5 0.390625 -0.71875 L 4.359375 -33.171875 C 4.390625 -33.398438 4.476562 -33.578125 4.625 -33.703125 C 4.769531 -33.828125 4.9375 -33.890625 5.125 -33.890625 L 12.59375 -33.890625 C 12.78125 -33.890625 12.929688 -33.828125 13.046875 -33.703125 C 13.160156 -33.578125 13.203125 -33.398438 13.171875 -33.171875 L 9.203125 -0.71875 C 9.171875 -0.5 9.082031 -0.320312 8.9375 -0.1875 C 8.789062 -0.0625 8.617188 0 8.421875 0 Z M 0.96875 0 "/></g></g></g><g fill="#75c7fb" fill-opacity="1"><g transform="translate(110.648202, 122.867283)"><g><path d="M 17.96875 -33.171875 C 18 -33.398438 18.085938 -33.578125 18.234375 -33.703125 C 18.378906 -33.828125 18.5625 -33.890625 18.78125 -33.890625 L 26.09375 -33.890625 C 26.320312 -33.890625 26.492188 -33.828125 26.609375 -33.703125 C 26.722656 -33.578125 26.765625 -33.398438 26.734375 -33.171875 L 22.703125 -0.71875 C 22.671875 -0.5 22.59375 -0.320312 22.46875 -0.1875 C 22.34375 -0.0625 22.164062 0 21.9375 0 L 13.5625 0 C 13.175781 0 12.945312 -0.207031 12.875 -0.625 L 11.046875 -15.5 C 11.046875 -15.59375 11.007812 -15.640625 10.9375 -15.640625 C 10.875 -15.640625 10.84375 -15.59375 10.84375 -15.5 L 9.109375 -0.71875 C 9.078125 -0.5 8.988281 -0.320312 8.84375 -0.1875 C 8.695312 -0.0625 8.523438 0 8.328125 0 L 0.96875 0 C 0.769531 0 0.613281 -0.0625 0.5 -0.1875 C 0.394531 -0.320312 0.359375 -0.5 0.390625 -0.71875 L 4.359375 -33.171875 C 4.390625 -33.398438 4.476562 -33.578125 4.625 -33.703125 C 4.769531 -33.828125 4.9375 -33.890625 5.125 -33.890625 L 13.40625 -33.890625 C 13.800781 -33.890625 14.03125 -33.679688 14.09375 -33.265625 L 15.984375 -18.296875 C 15.984375 -18.203125 16.015625 -18.171875 16.078125 -18.203125 C 16.140625 -18.234375 16.1875 -18.285156 16.21875 -18.359375 Z M 17.96875 -33.171875 "/></g></g></g><g fill="#75c7fb" fill-opacity="1"><g transform="translate(135.434799, 122.867283)"><g><path d="M 22.375 -26.828125 C 22.34375 -26.597656 22.253906 -26.414062 22.109375 -26.28125 C 21.960938 -26.15625 21.773438 -26.09375 21.546875 -26.09375 L 12.546875 -26.09375 C 12.378906 -26.09375 12.296875 -26.015625 12.296875 -25.859375 L 11.71875 -21.109375 C 11.65625 -20.953125 11.71875 -20.875 11.90625 -20.875 L 16.609375 -20.875 C 16.835938 -20.875 17.003906 -20.804688 17.109375 -20.671875 C 17.222656 -20.546875 17.265625 -20.367188 17.234375 -20.140625 L 16.46875 -13.796875 C 16.363281 -13.316406 16.085938 -13.078125 15.640625 -13.078125 L 10.9375 -13.078125 C 10.78125 -13.078125 10.703125 -12.992188 10.703125 -12.828125 L 10.125 -8.03125 C 10.050781 -7.875 10.113281 -7.796875 10.3125 -7.796875 L 19.328125 -7.796875 C 19.546875 -7.796875 19.710938 -7.726562 19.828125 -7.59375 C 19.941406 -7.46875 19.984375 -7.289062 19.953125 -7.0625 L 19.171875 -0.71875 C 19.140625 -0.5 19.050781 -0.320312 18.90625 -0.1875 C 18.757812 -0.0625 18.578125 0 18.359375 0 L 0.96875 0 C 0.769531 0 0.613281 -0.0625 0.5 -0.1875 C 0.394531 -0.320312 0.359375 -0.5 0.390625 -0.71875 L 4.359375 -33.171875 C 4.390625 -33.398438 4.476562 -33.578125 4.625 -33.703125 C 4.769531 -33.828125 4.9375 -33.890625 5.125 -33.890625 L 22.515625 -33.890625 C 22.742188 -33.890625 22.910156 -33.828125 23.015625 -33.703125 C 23.128906 -33.578125 23.171875 -33.398438 23.140625 -33.171875 Z M 22.375 -26.828125 "/></g></g></g><g fill="#75c7fb" fill-opacity="1"><g transform="translate(156.300074, 122.867283)"><g><path d="M 1.84375 -9.921875 C 1.613281 -9.921875 1.441406 -9.984375 1.328125 -10.109375 C 1.210938 -10.242188 1.171875 -10.425781 1.203125 -10.65625 L 1.984375 -16.953125 C 2.015625 -17.171875 2.101562 -17.34375 2.25 -17.46875 C 2.394531 -17.601562 2.566406 -17.671875 2.765625 -17.671875 L 15.78125 -17.671875 C 16.007812 -17.671875 16.179688 -17.601562 16.296875 -17.46875 C 16.410156 -17.34375 16.453125 -17.171875 16.421875 -16.953125 L 15.640625 -10.65625 C 15.609375 -10.425781 15.519531 -10.242188 15.375 -10.109375 C 15.226562 -9.984375 15.039062 -9.921875 14.8125 -9.921875 Z M 1.84375 -9.921875 "/></g></g></g><g fill="#75c7fb" fill-opacity="1"><g transform="translate(172.421044, 122.867283)"><g><path d="M 22.21875 -9.734375 C 21.863281 -6.597656 20.628906 -4.191406 18.515625 -2.515625 C 16.398438 -0.835938 13.859375 0 10.890625 0 L 0.96875 0 C 0.769531 0 0.613281 -0.0625 0.5 -0.1875 C 0.394531 -0.320312 0.359375 -0.5 0.390625 -0.71875 L 4.359375 -33.171875 C 4.390625 -33.398438 4.476562 -33.578125 4.625 -33.703125 C 4.769531 -33.828125 4.9375 -33.890625 5.125 -33.890625 L 13.65625 -33.890625 C 16.75 -33.890625 19.160156 -33.234375 20.890625 -31.921875 C 22.617188 -30.617188 23.484375 -28.644531 23.484375 -26 C 23.484375 -25.675781 23.453125 -25.128906 23.390625 -24.359375 C 23.003906 -21.359375 21.828125 -19.128906 19.859375 -17.671875 C 19.660156 -17.578125 19.609375 -17.484375 19.703125 -17.390625 C 21.453125 -15.898438 22.328125 -13.816406 22.328125 -11.140625 C 22.328125 -10.847656 22.289062 -10.378906 22.21875 -9.734375 Z M 12.546875 -26.09375 C 12.378906 -26.09375 12.296875 -26.015625 12.296875 -25.859375 L 11.671875 -20.921875 C 11.671875 -20.753906 11.734375 -20.671875 11.859375 -20.671875 L 12.15625 -20.671875 C 13.539062 -20.671875 14.363281 -21.578125 14.625 -23.390625 L 14.671875 -24.015625 C 14.671875 -25.398438 14.054688 -26.09375 12.828125 -26.09375 Z M 11.140625 -7.796875 C 11.847656 -7.796875 12.4375 -8.132812 12.90625 -8.8125 C 13.375 -9.488281 13.609375 -10.457031 13.609375 -11.71875 C 13.609375 -12.457031 13.460938 -13.050781 13.171875 -13.5 C 12.878906 -13.957031 12.472656 -14.1875 11.953125 -14.1875 L 11.09375 -14.1875 C 10.925781 -14.1875 10.84375 -14.109375 10.84375 -13.953125 L 10.125 -8.03125 C 10.050781 -7.875 10.113281 -7.796875 10.3125 -7.796875 Z M 11.140625 -7.796875 "/></g></g></g><g fill="#75c7fb" fill-opacity="1"><g transform="translate(195.125951, 122.867283)"><g><path d="M 10.359375 0.390625 C 7.484375 0.390625 5.222656 -0.390625 3.578125 -1.953125 C 1.929688 -3.523438 1.109375 -5.648438 1.109375 -8.328125 C 1.109375 -8.648438 1.140625 -9.195312 1.203125 -9.96875 L 2.953125 -23.921875 C 3.335938 -27.085938 4.585938 -29.601562 6.703125 -31.46875 C 8.816406 -33.34375 11.457031 -34.28125 14.625 -34.28125 C 17.46875 -34.28125 19.71875 -33.492188 21.375 -31.921875 C 23.039062 -30.359375 23.875 -28.238281 23.875 -25.5625 C 23.875 -25.238281 23.84375 -24.691406 23.78125 -23.921875 L 22.078125 -9.96875 C 21.691406 -6.8125 20.429688 -4.296875 18.296875 -2.421875 C 16.171875 -0.546875 13.523438 0.390625 10.359375 0.390625 Z M 11.328125 -7.40625 C 11.816406 -7.40625 12.226562 -7.597656 12.5625 -7.984375 C 12.90625 -8.378906 13.125 -8.914062 13.21875 -9.59375 L 15.015625 -24.3125 C 15.078125 -24.988281 14.992188 -25.519531 14.765625 -25.90625 C 14.546875 -26.289062 14.191406 -26.484375 13.703125 -26.484375 C 13.179688 -26.484375 12.75 -26.289062 12.40625 -25.90625 C 12.070312 -25.519531 11.875 -24.988281 11.8125 -24.3125 L 10.015625 -9.59375 C 9.984375 -9.457031 9.96875 -9.28125 9.96875 -9.0625 C 9.96875 -8.539062 10.085938 -8.132812 10.328125 -7.84375 C 10.578125 -7.550781 10.910156 -7.40625 11.328125 -7.40625 Z M 11.328125 -7.40625 "/></g></g></g><g fill="#75c7fb" fill-opacity="1"><g transform="translate(217.830859, 122.867283)"><g><path d="M 10.359375 0.390625 C 7.484375 0.390625 5.222656 -0.390625 3.578125 -1.953125 C 1.929688 -3.523438 1.109375 -5.648438 1.109375 -8.328125 C 1.109375 -8.648438 1.140625 -9.195312 1.203125 -9.96875 L 2.953125 -23.921875 C 3.335938 -27.085938 4.585938 -29.601562 6.703125 -31.46875 C 8.816406 -33.34375 11.457031 -34.28125 14.625 -34.28125 C 17.46875 -34.28125 19.71875 -33.492188 21.375 -31.921875 C 23.039062 -30.359375 23.875 -28.238281 23.875 -25.5625 C 23.875 -25.238281 23.84375 -24.691406 23.78125 -23.921875 L 22.078125 -9.96875 C 21.691406 -6.8125 20.429688 -4.296875 18.296875 -2.421875 C 16.171875 -0.546875 13.523438 0.390625 10.359375 0.390625 Z M 11.328125 -7.40625 C 11.816406 -7.40625 12.226562 -7.597656 12.5625 -7.984375 C 12.90625 -8.378906 13.125 -8.914062 13.21875 -9.59375 L 15.015625 -24.3125 C 15.078125 -24.988281 14.992188 -25.519531 14.765625 -25.90625 C 14.546875 -26.289062 14.191406 -26.484375 13.703125 -26.484375 C 13.179688 -26.484375 12.75 -26.289062 12.40625 -25.90625 C 12.070312 -25.519531 11.875 -24.988281 11.8125 -24.3125 L 10.015625 -9.59375 C 9.984375 -9.457031 9.96875 -9.28125 9.96875 -9.0625 C 9.96875 -8.539062 10.085938 -8.132812 10.328125 -7.84375 C 10.578125 -7.550781 10.910156 -7.40625 11.328125 -7.40625 Z M 11.328125 -7.40625 "/></g></g></g><g fill="#75c7fb" fill-opacity="1"><g transform="translate(240.535767, 122.867283)"><g><path d="M 0.96875 0 C 0.769531 0 0.613281 -0.0625 0.5 -0.1875 C 0.394531 -0.320312 0.359375 -0.5 0.390625 -0.71875 L 4.359375 -33.171875 C 4.390625 -33.398438 4.476562 -33.578125 4.625 -33.703125 C 4.769531 -33.828125 4.9375 -33.890625 5.125 -33.890625 L 12.59375 -33.890625 C 12.78125 -33.890625 12.929688 -33.828125 13.046875 -33.703125 C 13.160156 -33.578125 13.203125 -33.398438 13.171875 -33.171875 L 12.015625 -23.4375 C 11.972656 -23.3125 11.984375 -23.25 12.046875 -23.25 C 12.117188 -23.25 12.1875 -23.296875 12.25 -23.390625 L 17.484375 -33.3125 C 17.671875 -33.695312 17.976562 -33.890625 18.40625 -33.890625 L 26.140625 -33.890625 C 26.535156 -33.890625 26.734375 -33.742188 26.734375 -33.453125 C 26.734375 -33.328125 26.679688 -33.1875 26.578125 -33.03125 L 18.203125 -18.6875 C 18.171875 -18.5625 18.15625 -18.46875 18.15625 -18.40625 L 22.859375 -0.828125 L 22.859375 -0.625 C 22.859375 -0.207031 22.628906 0 22.171875 0 L 14.375 0 C 13.957031 0 13.703125 -0.191406 13.609375 -0.578125 L 11.140625 -10.5625 C 11.140625 -10.65625 11.101562 -10.707031 11.03125 -10.71875 C 10.96875 -10.738281 10.921875 -10.6875 10.890625 -10.5625 L 10.3125 -9.484375 L 10.265625 -9.203125 L 9.203125 -0.71875 C 9.171875 -0.5 9.082031 -0.320312 8.9375 -0.1875 C 8.789062 -0.0625 8.617188 0 8.421875 0 Z M 0.96875 0 "/></g></g></g><g fill="#75c7fb" fill-opacity="1"><g transform="translate(264.789842, 122.867283)"><g/></g></g><g fill="#d32f23" fill-opacity="0.4196"><g transform="translate(275.617355, 124.16336)"><g><path d="M 10.21875 0.390625 C 7.40625 0.390625 5.179688 -0.382812 3.546875 -1.9375 C 1.921875 -3.488281 1.109375 -5.601562 1.109375 -8.28125 C 1.109375 -8.601562 1.140625 -9.148438 1.203125 -9.921875 L 2.953125 -24.0625 C 3.335938 -27.195312 4.578125 -29.679688 6.671875 -31.515625 C 8.773438 -33.359375 11.378906 -34.28125 14.484375 -34.28125 C 17.285156 -34.28125 19.507812 -33.515625 21.15625 -31.984375 C 22.800781 -30.453125 23.625 -28.34375 23.625 -25.65625 C 23.625 -25.375 23.59375 -24.84375 23.53125 -24.0625 L 23.484375 -23.828125 C 23.453125 -23.597656 23.363281 -23.410156 23.21875 -23.265625 C 23.070312 -23.117188 22.898438 -23.046875 22.703125 -23.046875 L 15.25 -22.8125 C 14.769531 -22.8125 14.5625 -23.035156 14.625 -23.484375 L 14.765625 -24.6875 C 14.828125 -25.238281 14.742188 -25.675781 14.515625 -26 C 14.296875 -26.320312 13.976562 -26.484375 13.5625 -26.484375 C 13.101562 -26.484375 12.71875 -26.320312 12.40625 -26 C 12.101562 -25.675781 11.921875 -25.238281 11.859375 -24.6875 L 9.96875 -9.15625 C 9.90625 -8.632812 9.976562 -8.210938 10.1875 -7.890625 C 10.394531 -7.566406 10.726562 -7.40625 11.1875 -7.40625 C 11.632812 -7.40625 12.007812 -7.554688 12.3125 -7.859375 C 12.625 -8.171875 12.8125 -8.601562 12.875 -9.15625 L 13.03125 -10.453125 C 13.0625 -10.679688 13.148438 -10.851562 13.296875 -10.96875 C 13.441406 -11.082031 13.609375 -11.140625 13.796875 -11.140625 L 21.203125 -10.890625 C 21.429688 -10.890625 21.601562 -10.816406 21.71875 -10.671875 C 21.832031 -10.523438 21.875 -10.34375 21.84375 -10.125 L 21.796875 -9.921875 C 21.398438 -6.796875 20.144531 -4.296875 18.03125 -2.421875 C 15.914062 -0.546875 13.3125 0.390625 10.21875 0.390625 Z M 10.21875 0.390625 "/></g></g></g><g fill="#d32f23" fill-opacity="0.4196"><g transform="translate(297.98338, 124.16336)"><g><path d="M 0.96875 0 C 0.769531 0 0.613281 -0.0625 0.5 -0.1875 C 0.394531 -0.320312 0.359375 -0.5 0.390625 -0.71875 L 4.359375 -33.171875 C 4.390625 -33.398438 4.476562 -33.578125 4.625 -33.703125 C 4.769531 -33.828125 4.9375 -33.890625 5.125 -33.890625 L 12.59375 -33.890625 C 12.78125 -33.890625 12.929688 -33.828125 13.046875 -33.703125 C 13.160156 -33.578125 13.203125 -33.398438 13.171875 -33.171875 L 10.125 -8.03125 C 10.050781 -7.875 10.113281 -7.796875 10.3125 -7.796875 L 19.515625 -7.796875 C 19.742188 -7.796875 19.910156 -7.726562 20.015625 -7.59375 C 20.128906 -7.46875 20.171875 -7.289062 20.140625 -7.0625 L 19.375 -0.71875 C 19.269531 -0.238281 18.992188 0 18.546875 0 Z M 0.96875 0 "/></g></g></g><g fill="#d32f23" fill-opacity="0.4196"><g transform="translate(318.945481, 124.16336)"><g><path d="M 10.3125 0.390625 C 7.539062 0.390625 5.347656 -0.398438 3.734375 -1.984375 C 2.117188 -3.566406 1.3125 -5.695312 1.3125 -8.375 C 1.3125 -8.726562 1.34375 -9.296875 1.40625 -10.078125 L 4.265625 -33.171875 C 4.296875 -33.398438 4.382812 -33.578125 4.53125 -33.703125 C 4.675781 -33.828125 4.84375 -33.890625 5.03125 -33.890625 L 12.5 -33.890625 C 12.6875 -33.890625 12.835938 -33.828125 12.953125 -33.703125 C 13.066406 -33.578125 13.109375 -33.398438 13.078125 -33.171875 L 10.171875 -9.203125 C 10.109375 -8.648438 10.171875 -8.210938 10.359375 -7.890625 C 10.554688 -7.566406 10.863281 -7.40625 11.28125 -7.40625 C 11.695312 -7.40625 12.039062 -7.566406 12.3125 -7.890625 C 12.59375 -8.210938 12.765625 -8.648438 12.828125 -9.203125 L 15.78125 -33.171875 C 15.8125 -33.398438 15.890625 -33.578125 16.015625 -33.703125 C 16.148438 -33.828125 16.332031 -33.890625 16.5625 -33.890625 L 23.96875 -33.890625 C 24.195312 -33.890625 24.363281 -33.828125 24.46875 -33.703125 C 24.582031 -33.578125 24.625 -33.398438 24.59375 -33.171875 L 21.734375 -10.078125 C 21.484375 -8.003906 20.835938 -6.175781 19.796875 -4.59375 C 18.765625 -3.019531 17.425781 -1.796875 15.78125 -0.921875 C 14.132812 -0.046875 12.3125 0.390625 10.3125 0.390625 Z M 10.3125 0.390625 "/></g></g></g><g fill="#d32f23" fill-opacity="0.4196"><g transform="translate(341.553563, 124.16336)"><g><path d="M 22.21875 -9.734375 C 21.863281 -6.597656 20.628906 -4.191406 18.515625 -2.515625 C 16.398438 -0.835938 13.859375 0 10.890625 0 L 0.96875 0 C 0.769531 0 0.613281 -0.0625 0.5 -0.1875 C 0.394531 -0.320312 0.359375 -0.5 0.390625 -0.71875 L 4.359375 -33.171875 C 4.390625 -33.398438 4.476562 -33.578125 4.625 -33.703125 C 4.769531 -33.828125 4.9375 -33.890625 5.125 -33.890625 L 13.65625 -33.890625 C 16.75 -33.890625 19.160156 -33.234375 20.890625 -31.921875 C 22.617188 -30.617188 23.484375 -28.644531 23.484375 -26 C 23.484375 -25.675781 23.453125 -25.128906 23.390625 -24.359375 C 23.003906 -21.359375 21.828125 -19.128906 19.859375 -17.671875 C 19.660156 -17.578125 19.609375 -17.484375 19.703125 -17.390625 C 21.453125 -15.898438 22.328125 -13.816406 22.328125 -11.140625 C 22.328125 -10.847656 22.289062 -10.378906 22.21875 -9.734375 Z M 12.546875 -26.09375 C 12.378906 -26.09375 12.296875 -26.015625 12.296875 -25.859375 L 11.671875 -20.921875 C 11.671875 -20.753906 11.734375 -20.671875 11.859375 -20.671875 L 12.15625 -20.671875 C 13.539062 -20.671875 14.363281 -21.578125 14.625 -23.390625 L 14.671875 -24.015625 C 14.671875 -25.398438 14.054688 -26.09375 12.828125 -26.09375 Z M 11.140625 -7.796875 C 11.847656 -7.796875 12.4375 -8.132812 12.90625 -8.8125 C 13.375 -9.488281 13.609375 -10.457031 13.609375 -11.71875 C 13.609375 -12.457031 13.460938 -13.050781 13.171875 -13.5 C 12.878906 -13.957031 12.472656 -14.1875 11.953125 -14.1875 L 11.09375 -14.1875 C 10.925781 -14.1875 10.84375 -14.109375 10.84375 -13.953125 L 10.125 -8.03125 C 10.050781 -7.875 10.113281 -7.796875 10.3125 -7.796875 Z M 11.140625 -7.796875 "/></g></g></g><g fill="#ff3847" fill-opacity="1"><g transform="translate(274.177919, 122.867283)"><g><path d="M 10.21875 0.390625 C 7.40625 0.390625 5.179688 -0.382812 3.546875 -1.9375 C 1.921875 -3.488281 1.109375 -5.601562 1.109375 -8.28125 C 1.109375 -8.601562 1.140625 -9.148438 1.203125 -9.921875 L 2.953125 -24.0625 C 3.335938 -27.195312 4.578125 -29.679688 6.671875 -31.515625 C 8.773438 -33.359375 11.378906 -34.28125 14.484375 -34.28125 C 17.285156 -34.28125 19.507812 -33.515625 21.15625 -31.984375 C 22.800781 -30.453125 23.625 -28.34375 23.625 -25.65625 C 23.625 -25.375 23.59375 -24.84375 23.53125 -24.0625 L 23.484375 -23.828125 C 23.453125 -23.597656 23.363281 -23.410156 23.21875 -23.265625 C 23.070312 -23.117188 22.898438 -23.046875 22.703125 -23.046875 L 15.25 -22.8125 C 14.769531 -22.8125 14.5625 -23.035156 14.625 -23.484375 L 14.765625 -24.6875 C 14.828125 -25.238281 14.742188 -25.675781 14.515625 -26 C 14.296875 -26.320312 13.976562 -26.484375 13.5625 -26.484375 C 13.101562 -26.484375 12.71875 -26.320312 12.40625 -26 C 12.101562 -25.675781 11.921875 -25.238281 11.859375 -24.6875 L 9.96875 -9.15625 C 9.90625 -8.632812 9.976562 -8.210938 10.1875 -7.890625 C 10.394531 -7.566406 10.726562 -7.40625 11.1875 -7.40625 C 11.632812 -7.40625 12.007812 -7.554688 12.3125 -7.859375 C 12.625 -8.171875 12.8125 -8.601562 12.875 -9.15625 L 13.03125 -10.453125 C 13.0625 -10.679688 13.148438 -10.851562 13.296875 -10.96875 C 13.441406 -11.082031 13.609375 -11.140625 13.796875 -11.140625 L 21.203125 -10.890625 C 21.429688 -10.890625 21.601562 -10.816406 21.71875 -10.671875 C 21.832031 -10.523438 21.875 -10.34375 21.84375 -10.125 L 21.796875 -9.921875 C 21.398438 -6.796875 20.144531 -4.296875 18.03125 -2.421875 C 15.914062 -0.546875 13.3125 0.390625 10.21875 0.390625 Z M 10.21875 0.390625 "/></g></g></g><g fill="#ff3847" fill-opacity="1"><g transform="translate(296.543945, 122.867283)"><g><path d="M 0.96875 0 C 0.769531 0 0.613281 -0.0625 0.5 -0.1875 C 0.394531 -0.320312 0.359375 -0.5 0.390625 -0.71875 L 4.359375 -33.171875 C 4.390625 -33.398438 4.476562 -33.578125 4.625 -33.703125 C 4.769531 -33.828125 4.9375 -33.890625 5.125 -33.890625 L 12.59375 -33.890625 C 12.78125 -33.890625 12.929688 -33.828125 13.046875 -33.703125 C 13.160156 -33.578125 13.203125 -33.398438 13.171875 -33.171875 L 10.125 -8.03125 C 10.050781 -7.875 10.113281 -7.796875 10.3125 -7.796875 L 19.515625 -7.796875 C 19.742188 -7.796875 19.910156 -7.726562 20.015625 -7.59375 C 20.128906 -7.46875 20.171875 -7.289062 20.140625 -7.0625 L 19.375 -0.71875 C 19.269531 -0.238281 18.992188 0 18.546875 0 Z M 0.96875 0 "/></g></g></g><g fill="#ff3847" fill-opacity="1"><g transform="translate(317.506045, 122.867283)"><g><path d="M 10.3125 0.390625 C 7.539062 0.390625 5.347656 -0.398438 3.734375 -1.984375 C 2.117188 -3.566406 1.3125 -5.695312 1.3125 -8.375 C 1.3125 -8.726562 1.34375 -9.296875 1.40625 -10.078125 L 4.265625 -33.171875 C 4.296875 -33.398438 4.382812 -33.578125 4.53125 -33.703125 C 4.675781 -33.828125 4.84375 -33.890625 5.03125 -33.890625 L 12.5 -33.890625 C 12.6875 -33.890625 12.835938 -33.828125 12.953125 -33.703125 C 13.066406 -33.578125 13.109375 -33.398438 13.078125 -33.171875 L 10.171875 -9.203125 C 10.109375 -8.648438 10.171875 -8.210938 10.359375 -7.890625 C 10.554688 -7.566406 10.863281 -7.40625 11.28125 -7.40625 C 11.695312 -7.40625 12.039062 -7.566406 12.3125 -7.890625 C 12.59375 -8.210938 12.765625 -8.648438 12.828125 -9.203125 L 15.78125 -33.171875 C 15.8125 -33.398438 15.890625 -33.578125 16.015625 -33.703125 C 16.148438 -33.828125 16.332031 -33.890625 16.5625 -33.890625 L 23.96875 -33.890625 C 24.195312 -33.890625 24.363281 -33.828125 24.46875 -33.703125 C 24.582031 -33.578125 24.625 -33.398438 24.59375 -33.171875 L 21.734375 -10.078125 C 21.484375 -8.003906 20.835938 -6.175781 19.796875 -4.59375 C 18.765625 -3.019531 17.425781 -1.796875 15.78125 -0.921875 C 14.132812 -0.046875 12.3125 0.390625 10.3125 0.390625 Z M 10.3125 0.390625 "/></g></g></g><g fill="#ff3847" fill-opacity="1"><g transform="translate(340.114128, 122.867283)"><g><path d="M 22.21875 -9.734375 C 21.863281 -6.597656 20.628906 -4.191406 18.515625 -2.515625 C 16.398438 -0.835938 13.859375 0 10.890625 0 L 0.96875 0 C 0.769531 0 0.613281 -0.0625 0.5 -0.1875 C 0.394531 -0.320312 0.359375 -0.5 0.390625 -0.71875 L 4.359375 -33.171875 C 4.390625 -33.398438 4.476562 -33.578125 4.625 -33.703125 C 4.769531 -33.828125 4.9375 -33.890625 5.125 -33.890625 L 13.65625 -33.890625 C 16.75 -33.890625 19.160156 -33.234375 20.890625 -31.921875 C 22.617188 -30.617188 23.484375 -28.644531 23.484375 -26 C 23.484375 -25.675781 23.453125 -25.128906 23.390625 -24.359375 C 23.003906 -21.359375 21.828125 -19.128906 19.859375 -17.671875 C 19.660156 -17.578125 19.609375 -17.484375 19.703125 -17.390625 C 21.453125 -15.898438 22.328125 -13.816406 22.328125 -11.140625 C 22.328125 -10.847656 22.289062 -10.378906 22.21875 -9.734375 Z M 12.546875 -26.09375 C 12.378906 -26.09375 12.296875 -26.015625 12.296875 -25.859375 L 11.671875 -20.921875 C 11.671875 -20.753906 11.734375 -20.671875 11.859375 -20.671875 L 12.15625 -20.671875 C 13.539062 -20.671875 14.363281 -21.578125 14.625 -23.390625 L 14.671875 -24.015625 C 14.671875 -25.398438 14.054688 -26.09375 12.828125 -26.09375 Z M 11.140625 -7.796875 C 11.847656 -7.796875 12.4375 -8.132812 12.90625 -8.8125 C 13.375 -9.488281 13.609375 -10.457031 13.609375 -11.71875 C 13.609375 -12.457031 13.460938 -13.050781 13.171875 -13.5 C 12.878906 -13.957031 12.472656 -14.1875 11.953125 -14.1875 L 11.09375 -14.1875 C 10.925781 -14.1875 10.84375 -14.109375 10.84375 -13.953125 L 10.125 -8.03125 C 10.050781 -7.875 10.113281 -7.796875 10.3125 -7.796875 Z M 11.140625 -7.796875 "/></g></g></g></svg>